<?xml version="1.0" encoding="UTF-8"?>
<svg width="22px" height="22px" viewBox="0 0 22 22" version="1.1" xmlns="http://www.w3.org/2000/svg" xmlns:xlink="http://www.w3.org/1999/xlink">
    <title>Shape</title>
    <g id="Symbols" stroke="none" stroke-width="1" fill="none" fill-rule="evenodd">
        <g id="D-/-Social-Footer" transform="translate(-580.000000, -156.000000)" fill="#FFFFFF" fill-rule="nonzero">
            <path d="M591.002454,161.359478 C587.880982,161.359478 585.36319,163.877831 585.36319,167 C585.36319,170.122169 587.880982,172.640522 591.002454,172.640522 C594.123926,172.640522 596.641718,170.122169 596.641718,167 C596.641718,163.877831 594.123926,161.359478 591.002454,161.359478 Z M591.002454,170.667076 C588.985276,170.667076 587.336196,169.022537 587.336196,167 C587.336196,164.977463 588.980368,163.332924 591.002454,163.332924 C593.02454,163.332924 594.668712,164.977463 594.668712,167 C594.668712,169.022537 593.019632,170.667076 591.002454,170.667076 L591.002454,170.667076 Z M598.18773,161.128752 C598.18773,161.860203 597.598773,162.444382 596.872393,162.444382 C596.141104,162.444382 595.557055,161.855294 595.557055,161.128752 C595.557055,160.402209 596.146012,159.813121 596.872393,159.813121 C597.598773,159.813121 598.18773,160.402209 598.18773,161.128752 Z M601.922699,162.464019 C601.839264,160.701662 601.43681,159.140578 600.146012,157.854401 C598.860123,156.568225 597.299387,156.165681 595.537423,156.077318 C593.721472,155.974227 588.278528,155.974227 586.462577,156.077318 C584.705521,156.160772 583.144785,156.563316 581.853988,157.849492 C580.56319,159.135669 580.165644,160.696753 580.077301,162.45911 C579.974233,164.275466 579.974233,169.719625 580.077301,171.535981 C580.160736,173.298338 580.56319,174.859422 581.853988,176.145599 C583.144785,177.431775 584.700613,177.834319 586.462577,177.922682 C588.278528,178.025773 593.721472,178.025773 595.537423,177.922682 C597.299387,177.839228 598.860123,177.436684 600.146012,176.145599 C601.431902,174.859422 601.834356,173.298338 601.922699,171.535981 C602.025767,169.719625 602.025767,164.280375 601.922699,162.464019 Z M599.576687,173.484882 C599.193865,174.44706 598.452761,175.18833 597.48589,175.576146 C596.038037,176.150508 592.602454,176.017963 591.002454,176.017963 C589.402454,176.017963 585.961963,176.145599 584.519018,175.576146 C583.557055,175.193239 582.815951,174.451969 582.428221,173.484882 C581.853988,172.036706 581.986503,168.600357 581.986503,167 C581.986503,165.399643 581.858896,161.958384 582.428221,160.515118 C582.811043,159.55294 583.552147,158.81167 584.519018,158.423854 C585.966871,157.849492 589.402454,157.982037 591.002454,157.982037 C592.602454,157.982037 596.042945,157.854401 597.48589,158.423854 C598.447853,158.806761 599.188957,159.548031 599.576687,160.515118 C600.15092,161.963294 600.018405,165.399643 600.018405,167 C600.018405,168.600357 600.15092,172.041616 599.576687,173.484882 Z" id="Shape"></path>
        </g>
    </g>
</svg>