<?xml version="1.0" encoding="UTF-8"?>
<svg width="22px" height="22px" viewBox="0 0 22 22" version="1.1" xmlns="http://www.w3.org/2000/svg" xmlns:xlink="http://www.w3.org/1999/xlink">
    <title>Path</title>
    <g id="Symbols" stroke="none" stroke-width="1" fill="none" fill-rule="evenodd">
        <g id="D-/-Social-Footer" transform="translate(-770.000000, -156.000000)" fill="#FFFFFF" fill-rule="nonzero">
            <path d="M792,167 C792,173.076613 787.076613,178 781,178 C779.864516,178 778.773387,177.827016 777.744355,177.507661 C778.192339,176.775806 778.862097,175.578226 779.110484,174.624597 C779.243548,174.110081 779.793548,172.007661 779.793548,172.007661 C780.152823,172.690726 781.199597,173.271774 782.312903,173.271774 C785.630645,173.271774 788.021371,170.220161 788.021371,166.427823 C788.021371,162.795161 785.054032,160.07621 781.239516,160.07621 C776.493548,160.07621 773.969758,163.260887 773.969758,166.733871 C773.969758,168.348387 774.830242,170.357661 776.200806,170.996371 C776.409274,171.093952 776.520161,171.049597 776.568952,170.85 C776.604435,170.699194 776.790726,169.949597 776.875,169.603629 C776.901613,169.492742 776.888306,169.395161 776.799597,169.28871 C776.351613,168.734274 775.987903,167.722984 775.987903,166.778226 C775.987903,164.352016 777.824194,162.005645 780.955645,162.005645 C783.656855,162.005645 785.550806,163.846371 785.550806,166.481048 C785.550806,169.457258 784.047177,171.519758 782.091129,171.519758 C781.013306,171.519758 780.201613,170.628226 780.463306,169.532661 C780.77379,168.224194 781.372581,166.81371 781.372581,165.868952 C781.372581,165.02621 780.920161,164.320968 779.979839,164.320968 C778.875403,164.320968 777.988306,165.460887 777.988306,166.991129 C777.988306,167.966935 778.316532,168.623387 778.316532,168.623387 C778.316532,168.623387 777.229839,173.227419 777.030242,174.087903 C776.808468,175.037097 776.897177,176.376613 776.990323,177.245968 C772.900806,175.644758 770,171.661694 770,167 C770,160.923387 774.923387,156 781,156 C787.076613,156 792,160.923387 792,167 Z" id="Path"></path>
        </g>
    </g>
</svg>