<?xml version="1.0" encoding="UTF-8"?>
<svg width="20px" height="20px" viewBox="0 0 20 20" version="1.1" xmlns="http://www.w3.org/2000/svg" xmlns:xlink="http://www.w3.org/1999/xlink">
    <title>Group</title>
    <g id="Symbols" stroke="none" stroke-width="1" fill="none" fill-rule="evenodd">
        <g id="D-/-C1-/-Nav" transform="translate(-1041.000000, -22.000000)" fill="#201E1E" fill-rule="nonzero">
            <g id="Group-6" transform="translate(1041.408267, 21.000000)">
                <g id="image-9735439508808430" transform="translate(0.000000, 1.340223)">
                    <path d="M12.582153,2.15387616 C9.71605895,-0.717958721 5.01566465,-0.717958721 2.14957056,2.15387616 C-0.716523521,5.02571105 -0.716523521,9.73552025 2.14957056,12.6073551 C4.90102088,15.3643166 9.25748389,15.47919 12.1617926,12.9902665 L13.6521615,14.4836206 C13.5375177,14.7516585 13.6139469,15.0962787 13.8050198,15.2877344 L17.3971911,18.8871008 C17.7029078,19.1934298 18.1614828,19.1934298 18.4671995,18.8871008 L18.88756,18.4658983 C19.1932767,18.1595692 19.1932767,17.7000757 18.88756,17.3937466 L15.2571742,13.8709625 C15.0278866,13.6412157 14.7221699,13.6029246 14.4546678,13.717798 L12.9642989,12.2244438 C15.4482471,9.31431781 15.3336033,4.91083765 12.582153,2.15387616 Z M2.95207691,11.8032414 C0.506343288,9.35260894 0.506343288,5.40862236 2.95207691,2.95798993 C5.39781053,0.507357496 9.33391307,0.507357496 11.7796467,2.95798993 C14.2253803,5.40862236 14.2253803,9.35260894 11.7796467,11.8032414 C9.33391307,14.2538738 5.35959594,14.2538738 2.95207691,11.8032414 Z" id="Shape"></path>
                </g>
            </g>
        </g>
    </g>
</svg>