<?xml version="1.0" encoding="UTF-8"?>
<svg width="25px" height="19px" viewBox="0 0 25 19" version="1.1" xmlns="http://www.w3.org/2000/svg" xmlns:xlink="http://www.w3.org/1999/xlink">
    <title>Path</title>
    <g id="Symbols" stroke="none" stroke-width="1" fill="none" fill-rule="evenodd">
        <g id="D-/-Social-Footer" transform="translate(-646.000000, -157.000000)" fill="#FFFFFF" fill-rule="nonzero">
            <path d="M668.430263,161.735139 C668.446133,161.942942 668.446133,162.15079 668.446133,162.358592 C668.446133,168.696845 663.290693,176 653.868048,176 C650.965107,176 648.268417,175.213247 646,173.847681 C646.412453,173.892184 646.808988,173.907033 647.23731,173.907033 C649.632583,173.907033 651.837572,173.150025 653.59837,171.858615 C651.345822,171.814067 649.458119,170.433605 648.807726,168.533591 C649.125012,168.578094 649.44225,168.607793 649.775405,168.607793 C650.235417,168.607793 650.695477,168.548395 651.12375,168.44454 C648.776036,167.99919 647.01519,166.069522 647.01519,163.739054 L647.01519,163.679701 C647.697272,164.035954 648.490488,164.258606 649.331165,164.28826 C647.951082,163.427304 647.046928,161.957791 647.046928,160.295279 C647.046928,159.404671 647.300689,158.588264 647.74488,157.875759 C650.267107,160.785132 654.058381,162.6851 658.309618,162.892948 C658.230321,162.536696 658.182714,162.165639 658.182714,161.794537 C658.182714,159.152319 660.467,157 663.306464,157 C664.781714,157 666.11419,157.578905 667.050131,158.514062 C668.208095,158.306259 669.318499,157.905458 670.302048,157.356253 C669.921285,158.469559 669.112297,159.404716 668.0495,159.998425 C669.080608,159.894569 670.079977,159.627323 671,159.256266 C670.302146,160.206227 669.429633,161.052287 668.430263,161.735139 Z" id="Path"></path>
        </g>
    </g>
</svg>