<?xml version="1.0" encoding="UTF-8"?>
<svg width="25px" height="17px" viewBox="0 0 25 17" version="1.1" xmlns="http://www.w3.org/2000/svg" xmlns:xlink="http://www.w3.org/1999/xlink">
    <title>Shape</title>
    <g id="Symbols" stroke="none" stroke-width="1" fill="none" fill-rule="evenodd">
        <g id="D-/-Social-Footer" transform="translate(-836.000000, -159.000000)" fill="#FFFFFF" fill-rule="nonzero">
            <path d="M860.477601,161.659924 C860.19008,160.612919 859.342943,159.788331 858.267337,159.508495 C856.317724,159 848.5,159 848.5,159 C848.5,159 840.682322,159 838.732663,159.508495 C837.657057,159.788375 836.80992,160.612919 836.522399,161.659924 C836,163.557682 836,167.517177 836,167.517177 C836,167.517177 836,171.476672 836.522399,173.37443 C836.80992,174.421435 837.657057,175.211669 838.732663,175.491505 C840.682322,176 848.5,176 848.5,176 C848.5,176 856.317678,176 858.267337,175.491505 C859.342943,175.211669 860.19008,174.421435 860.477601,173.37443 C861,171.476672 861,167.517177 861,167.517177 C861,167.517177 861,163.557682 860.477601,161.659924 Z M845.943164,171.112102 L845.943164,163.922253 L852.477229,167.517266 L845.943164,171.112102 Z" id="Shape"></path>
        </g>
    </g>
</svg>